<?xml version="1.0" encoding="utf-8"?>
<!-- Generator: Adobe Illustrator 16.0.0, SVG Export Plug-In . SVG Version: 6.00 Build 0)  -->
<!DOCTYPE svg PUBLIC "-//W3C//DTD SVG 1.1//EN" "http://www.w3.org/Graphics/SVG/1.1/DTD/svg11.dtd">
<svg version="1.1" id="Layer_1" xmlns="http://www.w3.org/2000/svg" xmlns:xlink="http://www.w3.org/1999/xlink" x="0px" y="0px"
	 width="1000px" height="1000px" viewBox="0 0 1000 1000" enable-background="new 0 0 1000 1000" xml:space="preserve">
<g>
	<path d="M724.115,321.894c-22.227-16.876-46.385-25.308-72.47-25.308c-22.891,0-45.512,7.237-67.866,21.722
		c-22.36,14.481-67.865,47.093-67.865,47.093s-45.505-32.607-67.864-47.089c-22.356-14.484-44.977-21.722-67.869-21.722
		c-26.083,0-50.241,8.432-72.468,25.31c-22.22,16.871-33.336,38.463-33.336,64.768c0,21.256,5.578,39.66,16.74,55.204
		c11.16,15.543,25.447,27.366,42.847,35.474c17.405,8.104,34.215,15.21,50.421,21.326c16.21,6.106,28.896,11.16,38.066,15.144
		c9.165,3.986,17.276,9.369,24.313,16.142c2.84,2.734,5.078,5.751,6.775,9.024h52.178c5.203-10.99,7.807-22.962,7.807-35.927
		c0-33.22-9.96-55.799-29.89-67.757c-19.93-12.227-38.795-21.925-56.599-29.099c-17.798-7.174-34.679-13.884-50.621-20.125
		c-15.939-6.25-26.964-12.694-33.079-19.331c-6.11-6.646-9.17-15.685-9.17-27.105c0-9.565,4.125-17.806,12.357-24.713
		c8.241-6.911,18.872-10.365,31.888-10.365c22.587,0,42.448,5.845,59.585,17.539c17.14,11.69,30.958,26.37,41.454,44.044
		c10.501,17.667,17.676,32.881,21.525,45.638c3.854,12.752,6.574,21.922,8.17,27.5h6.773v-0.006h6.774
		c1.597-5.578,4.315-14.747,8.169-27.499c3.849-12.756,11.023-27.97,21.526-45.638c10.494-17.674,24.313-32.354,41.451-44.044
		c17.14-11.694,36.999-17.539,59.587-17.539c13.015,0,23.646,3.454,31.887,10.365c8.232,6.907,12.356,15.148,12.356,24.713
		c0,11.418-3.059,20.459-9.17,27.103c-6.116,6.637-17.138,13.082-33.076,19.333c-15.945,6.239-32.825,12.951-50.622,20.125
		c-17.807,7.175-36.671,16.873-56.6,29.099c-19.931,11.957-29.893,34.537-29.893,67.757c0,12.963,2.604,24.94,7.808,35.931h52.176
		c1.695-3.273,3.937-6.29,6.779-9.027c7.035-6.773,15.147-12.156,24.312-16.145c9.17-3.981,21.854-9.035,38.064-15.142
		c16.206-6.116,33.017-13.224,50.422-21.326c17.402-8.108,31.686-19.931,42.848-35.474c11.16-15.543,16.738-33.947,16.738-55.204
		C757.451,360.359,746.336,338.766,724.115,321.894z"/>
	<path d="M681.826,521.988c-4.112,10.894-12.058,23.121-23.852,36.669c-11.797,13.552-23.454,23.316-34.981,29.296
		c-11.535,5.982-25.379,8.97-41.539,8.97c-10.878,0-20.947-3.187-30.22-9.566c-9.278-6.38-13.911-14.347-13.911-23.912
		c0-2.75,0.343-5.333,0.871-7.832c2.149-3.429,4.054-6.948,5.65-10.591h-54.346v0.005h-1.505c1.592,3.638,3.495,7.157,5.646,10.586
		c0.528,2.499,0.869,5.082,0.869,7.832c0,9.565-4.631,17.532-13.91,23.912c-9.273,6.38-19.343,9.566-30.219,9.566
		c-16.161,0-30.004-2.987-41.541-8.97c-11.527-5.979-23.183-15.744-34.982-29.296c-11.793-13.548-19.737-25.775-23.85-36.669
		c-4.112-10.898-6.824-18.602-8.152-23.119h-7.175v105.627h7.574c0-9.566,1.197-17.606,3.588-24.114
		c2.392-6.516,7.44-9.765,15.144-9.765l41.455,23.118c14.348,7.172,29.095,10.761,44.239,10.761c25.963,0,49.018-8.233,69.24-24.489
		c20.216,16.256,43.271,24.489,69.234,24.489c15.144,0,29.89-3.589,44.238-10.761l41.455-23.118c7.703,0,12.753,3.249,15.144,9.765
		c2.392,6.508,3.587,14.548,3.587,24.114h7.574V498.87h-7.172C688.649,503.387,685.937,511.09,681.826,521.988z"/>
</g>
</svg>
